<?xml version="1.0" encoding="utf-8"?>
<!-- Generator: Adobe Illustrator 19.0.0, SVG Export Plug-In . SVG Version: 6.00 Build 0)  -->
<svg version="1.1" id="Layer_1" xmlns="http://www.w3.org/2000/svg" xmlns:xlink="http://www.w3.org/1999/xlink" x="0px" y="0px"
	 viewBox="-1 3 24 24" style="enable-background:new -1 3 24 24;" xml:space="preserve">
<style type="text/css">
	.st0{fill:none;}
	.st1{opacity:0.3;enable-background:new    ;}
</style>
<path class="st0" d="M-1,3h24v24H-1V3z"/>
<path class="st1" d="M15,12H7v10h8V12z"/>
<path d="M13.1,13.5L11,15.6l-2.1-2.1l-1.4,1.4L9.6,17l-2.1,2.1l1.4,1.4l2.1-2.1l2.1,2.1l1.4-1.4L12.4,17l2.1-2.1L13.1,13.5z M14.5,7
	l-1-1h-5l-1,1H4v2h14V7H14.5z M5,22c0,1.1,0.9,2,2,2h8c1.1,0,2-0.9,2-2V10H5V22z M7,12h8v10H7V12z"/>
</svg>
