<?xml version="1.0" encoding="utf-8"?>
<!-- Generator: Adobe Illustrator 19.0.0, SVG Export Plug-In . SVG Version: 6.00 Build 0)  -->
<svg version="1.1" id="Layer_1" xmlns="http://www.w3.org/2000/svg" xmlns:xlink="http://www.w3.org/1999/xlink" x="0px" y="0px"
	 viewBox="-585 387 28 28" style="enable-background:new -585 387 28 28;" xml:space="preserve">
<style type="text/css">
	.st0{fill:#FFFFFF;}
	.st1{fill:none;}
	.st2{opacity:0.6;fill:#00F9FF;enable-background:new    ;}
</style>
<path class="st0" d="M-557.3,400.9l-3.7-3.7c0.3-0.8,0.5-1.7,0.5-2.6c0-3.6-2.9-6.5-6.5-6.5c-2.1,0-3.9,0.9-5.1,2.4h-8.2
	c-2,0-3.6,1.6-3.6,3.5v16.3c0,1.9,1.6,3.5,3.5,3.5h16.4c2,0,3.5-1.5,3.5-3.5v-6.2L-557.3,400.9z M-567,391.1c1.9,0,3.5,1.6,3.5,3.5
	s-1.6,3.5-3.5,3.5s-3.5-1.6-3.5-3.5S-568.9,391.1-567,391.1z"/>
<path class="st1" d="M-585,387h28v28h-28V387z"/>
<circle class="st2" cx="-567" cy="394.6" r="3.5"/>
<path d="M-564,410.4h-16.3V394h5.9c0.1-0.8,0.3-1.6,0.6-2.3h-6.5c-1.3,0-2.4,1-2.4,2.3v16.3c0,1.3,1.1,2.3,2.3,2.3h16.4
	c1.3,0,2.3-1,2.3-2.3v-5.8l-2.3-2.3V410.4z"/>
<polygon points="-578.5,395.4 -578.5,405.5 -576.2,403 -573.9,407.5 -571.9,406.6 -574.1,402.1 -571.2,401.8 "/>
<path d="M-562.5,397.4c0.5-0.8,0.8-1.8,0.8-2.8c0-2.9-2.3-5.3-5.3-5.3s-5.3,2.3-5.3,5.3s2.3,5.2,5.2,5.2c1,0,2-0.3,2.8-0.8l3.6,3.6
	l1.7-1.7L-562.5,397.4z M-567,397.5c-1.6,0-2.9-1.3-2.9-2.9s1.3-2.9,2.9-2.9s2.9,1.3,2.9,2.9S-565.4,397.5-567,397.5z"/>
</svg>
