<svg xmlns="http://www.w3.org/2000/svg" height="28" width="28"><path d="m0 0h28v28h-28v-28z" fill="none"/><path d="m3.5 15.2h21v-1.8h-21v1.8zm0-4.6h21v-1.7h-21v1.7zm0-6.2v1.8h21v-1.8h-21z"/><path d="m18.7 18.3h-0.7l-0.2-0.2c0.9-1 1.4-2.3 1.4-3.8 0-3.3-2.6-5.8-5.8-5.8s-5.9 2.5-5.9 5.7 2.6 5.8 5.8 5.8c1.4 0 2.8-0.6 3.8-1.4l0.2 0.2v0.7l4.6 4.4 1.3-1.3-4.5-4.3zm-5.4 0c-2.2 0-4.1-1.8-4.1-4.1 0-2.2 1.8-4.1 4.1-4.1s4.1 1.8 4.1 4.1-1.9 4.1-4.1 4.1z"/><path opacity=".4" d="m13.3 18.3c-2.2 0-4.1-1.8-4.1-4.1 0-2.2 1.8-4.1 4.1-4.1s4.1 1.8 4.1 4.1-1.9 4.1-4.1 4.1z" fill="#42effc"/></svg>