<svg xmlns="http://www.w3.org/2000/svg" height="28" width="28"><path d="m0 0h28v28h-28v-28z" fill="none"/><path d="m21 15.2v8.2h-16.3v-16.4h5.9c0.1-0.8 0.3-1.6 0.6-2.3h-6.5c-1.3 0-2.4 1-2.4 2.3v16.3c0 1.3 1.1 2.3 2.3 2.3h16.4c1.3 0 2.3-1 2.3-2.3v-5.8l-2.3-2.3zm1.5-4.8c0.5-0.8 0.8-1.8 0.8-2.8 0-2.9-2.3-5.3-5.3-5.3s-5.3 2.3-5.3 5.3 2.3 5.2 5.2 5.2c1 0 2-0.3 2.8-0.8l3.6 3.6 1.7-1.7-3.5-3.5zm-4.4 0.1c-1.6 0-2.9-1.3-2.9-2.9s1.3-2.9 2.9-2.9 2.9 1.3 2.9 2.9-1.3 2.9-2.9 2.9zm-7 10-2.3-4.5-2.3 2.5v-10.1l7.3 6.4-2.9 0.3 2.2 4.5-2 0.9z"/><circle opacity=".6" cy="7.6" cx="18.1" r="2.9" fill="#00f9ff"/></svg>