<svg xmlns="http://www.w3.org/2000/svg" height="40" width="40"><path fill="#007bff" d="m20 0c-11 0-20 9-20 20s9 20 20 20 20-9 20-20c0-11.1-9-20-20-20zm2.4 33c-0.7 0.7-1.4 1-2.4 1-0.9 0-1.7-0.3-2.3-1-0.6-0.6-1-1.4-1-2.4 0-0.9 0.3-1.7 1-2.3 0.6-0.6 1.4-1 2.3-1s1.7 0.3 2.4 1c0.6 0.6 1 1.4 1 2.3 0 1-0.4 1.8-1 2.4zm5.6-17.7c-0.2 0.6-0.4 1.1-0.7 1.6s-0.7 1-1.1 1.4-0.8 0.9-1.3 1.3l-1.1 1.1c-0.3 0.3-0.5 0.7-0.7 1s-0.3 0.7-0.4 1c-0.1 0.4-0.1 0.8-0.1 1.2v0.6h-5v-1.3c0-0.6 0.1-1.2 0.2-1.7s0.3-1 0.6-1.5 0.6-1 1.1-1.5c0.4-0.5 1-1 1.7-1.6s1.2-1.2 1.6-1.7 0.6-1.1 0.6-1.9-0.3-1.4-0.9-2-1.4-0.9-2.4-0.9c-0.5 0-1 0.1-1.5 0.3-0.4 0.4-0.8 0.6-1.1 0.9s-0.6 0.7-0.8 1c-0.3 0.4-0.4 0.8-0.5 1.2l-4.4-1.8c0.2-0.7 0.5-1.4 1-2.1 0.4-0.7 1-1.4 1.7-1.9 0.7-0.6 1.5-1 2.4-1.4 0.8-0.4 1.9-0.6 3-0.6 1.2 0 2.3 0.2 3.4 0.6 1 0.4 1.9 0.9 2.6 1.5 0.7 0.7 1.3 1.4 1.7 2.3s0.6 1.8 0.6 2.9c0 0.7-0.1 1.4-0.2 2z"/></svg>