<svg xmlns="http://www.w3.org/2000/svg" height="30" width="30"><path fill="#007bff" d="m15 0c-8.2 0-15 6.8-15 15s6.8 15 15 15 15-6.8 15-15c0-8.3-6.7-15-15-15zm1.8 24.8c-0.5 0.5-1 0.8-1.8 0.8-0.7 0-1.3-0.2-1.7-0.8-0.4-0.4-0.8-1.1-0.8-1.8s0.2-1.3 0.8-1.7c0.4-0.4 1.1-0.8 1.7-0.8s1.3 0.2 1.8 0.8c0.5 0.5 0.8 1.1 0.8 1.7-0.1 0.7-0.3 1.3-0.8 1.8zm4.2-13.3c-0.2 0.4-0.3 0.8-0.5 1.2s-0.5 0.8-0.8 1.1-0.6 0.7-1 1l-0.8 0.8c-0.2 0.2-0.4 0.5-0.5 0.8-0.2 0.2-0.2 0.5-0.3 0.8-0.1 0.1-0.1 0.4-0.1 0.7v0.4h-3.8v-1c0-0.4 0.1-0.9 0.1-1.3 0.1-0.4 0.2-0.7 0.5-1.1s0.5-0.8 0.8-1.1c0.3-0.4 0.8-0.8 1.3-1.2s0.9-0.9 1.2-1.3 0.5-0.8 0.5-1.4-0.2-1.1-0.7-1.5-1.1-0.7-1.8-0.7c-0.4 0-0.8 0.1-1.1 0.2-0.3 0.3-0.6 0.4-0.8 0.7s-0.4 0.5-0.6 0.8-0.3 0.6-0.4 0.9l-3.3-1.3c0.1-0.5 0.3-1.1 0.7-1.6 0.3-0.5 0.8-1.1 1.3-1.4 0.5-0.4 1.1-0.8 1.8-1.1 0.6-0.3 1.4-0.4 2.3-0.4s1.7 0.2 2.6 0.4c0.8 0.3 1.4 0.7 1.9 1.1 0.5 0.5 1 1.1 1.3 1.7s0.4 1.3 0.4 2.2c0 0.6-0.1 1.1-0.2 1.6z"/></svg>